<svg xmlns:rdf="http://www.w3.org/1999/02/22-rdf-syntax-ns#" xmlns="http://www.w3.org/2000/svg" height="52" width="355" version="1.1" xmlns:cc="http://creativecommons.org/ns#" xmlns:xlink="http://www.w3.org/1999/xlink" viewBox="0 0 354.99999 52" xmlns:dc="http://purl.org/dc/elements/1.1/">
 <defs>
  <radialGradient id="radialGradient4487" gradientUnits="userSpaceOnUse" cy="1027.3" cx="171.48" gradientTransform="matrix(1 0 0 .13206 0 891.65)" r="164.02">
   <stop stop-color="#444" offset="0"/>
   <stop stop-color="#444" offset="1"/>
  </radialGradient>
 </defs>
 <g transform="translate(0 -1000.4)">
  <path d="m335.5 1031.2q0 2.1806-0.267 4.1386-0.24475 1.9358-0.82327 3.7381-0.55627 1.8023-1.4685 3.4933-0.91227 1.6911-2.225 3.3153h-1.1348q2.5366-3.115 3.6491-6.8309 1.1348-3.6935 1.1348-7.8544 0-2.4253-0.28926-4.4946-0.28926-2.0916-0.89002-3.9606-0.57851-1.869-1.4908-3.5823-0.89003-1.7133-2.1138-3.3821h1.1348q1.2683 1.7578 2.1583 3.5378 0.91227 1.7801 1.4908 3.6714 0.60077 1.869 0.86777 3.9161 0.267 2.0248 0.267 4.2943zm-8.1437 0q0 1.0903-0.24476 2.0471-0.24475 0.9567-0.80102 1.6687-0.55626 0.7121-1.424 1.1348-0.86776 0.4005-2.136 0.4005-1.0013 0-1.7355-0.4005-0.73427-0.4227-1.3795-0.9345v4.9619h-1.8023v-13.84h1.8023v1.2683q0.71202-0.6452 1.4018-1.068 0.71202-0.445 1.7133-0.445 1.2683 0 2.136 0.4227 0.86778 0.4005 1.424 1.1126 0.55627 0.6897 0.80102 1.6465 0.24476 0.9345 0.24476 2.0248zm-1.9136 0q0-0.7565-0.15575-1.4685-0.15576-0.712-0.51176-1.2683-0.35601-0.5563-0.91227-0.89-0.53402-0.3338-1.3128-0.3338-0.80102 0-1.3573 0.3338-0.53401 0.3337-0.89002 0.89t-0.51176 1.2683q-0.15576 0.712-0.15576 1.4685 0 0.7788 0.15576 1.4908 0.15575 0.6898 0.51176 1.246 0.35601 0.5563 0.89002 0.89 0.55626 0.3115 1.3573 0.3115 0.77877 0 1.3128-0.3115 0.55626-0.3337 0.91227-0.89 0.356-0.5562 0.51176-1.246 0.15575-0.712 0.15575-1.4908zm-12.149 4.9396v-6.4081q0-1.1348-0.53401-1.8023-0.53401-0.6898-1.691-0.6898-0.53401 0-1.0013 0.2448-0.46726 0.2447-0.82327 0.623-0.33376 0.356-0.53401 0.801-0.17801 0.4228-0.17801 0.8233v6.4081h-1.8023v-6.4081q0-0.4673-0.15575-0.9123-0.15576-0.4673-0.44501-0.801-0.26701-0.356-0.68977-0.5563-0.40051-0.2225-0.89002-0.2225-0.57852 0-1.068 0.2448-0.48951 0.2447-0.84552 0.623-0.356 0.356-0.55626 0.801-0.20025 0.445-0.20025 0.8233v6.4081h-1.8023v-9.9015h1.8023v1.3573q0.53401-0.712 1.246-1.157 0.71201-0.445 1.691-0.445 0.71202 0 1.2238 0.1112 0.53402 0.1113 0.91227 0.3338 0.40052 0.2002 0.68977 0.534 0.28926 0.3338 0.55627 0.7565 0.66751-0.9345 1.4685-1.335 0.80102-0.4005 1.7355-0.4005 1.2015 0 1.9358 0.356 0.73426 0.356 1.1125 0.9123 0.40051 0.5562 0.51177 1.2237 0.1335 0.6453 0.1335 1.2461v6.4081h-1.8023zm-17.511 0q-0.089-0.3782-0.15575-0.712-0.0445-0.3338-0.089-0.712-0.68977 0.8678-1.3573 1.2905-0.66752 0.4005-1.6465 0.4005-0.64527 0-1.3128-0.178-0.66751-0.178-1.2238-0.534-0.55626-0.356-0.91227-0.89-0.356-0.534-0.356-1.2683 0-1.1348 0.51176-1.8245 0.51176-0.712 1.2905-1.1126 0.80102-0.4005 1.7578-0.534 0.95677-0.1557 1.8246-0.1557h1.3573q0.0668-0.5563 0-1.0236-0.0445-0.4672-0.28926-0.801-0.24476-0.356-0.71201-0.5562-0.44502-0.2003-1.157-0.2003-0.37827 0-0.77877 0.089-0.37826 0.067-0.71202 0.267-0.31151 0.178-0.51176 0.4895-0.20026 0.2893-0.20026 0.7343h-1.8468q0-0.8678 0.33376-1.424 0.35601-0.5785 0.91227-0.9123 0.57851-0.3338 1.2905-0.445 0.71202-0.1335 1.4463-0.1335 0.48952 0 1.068 0.067 0.60076 0.044 1.1348 0.2225 0.55626 0.178 0.97902 0.5118 0.44501 0.3115 0.64526 0.8678 0.0668 0.178 0.11125 0.4672 0.0445 0.267 0.0445 0.6008 0.0223 0.3338 0.0223 0.712 0.0222 0.356 0.0222 0.6675v3.2486q0 0.3338 0 0.7343 0.0223 0.4005 0.0445 0.801 0.0445 0.3783 0.089 0.712 0.0445 0.3338 0.1335 0.534h-1.7578zm-0.33375-4.8728q-0.17801-0.022-0.48951-0.044-0.31151-0.022-0.51177-0.022-0.48951 0-1.157 0.089-0.66751 0.089-1.2683 0.3338-0.60076 0.2225-1.0235 0.6452-0.42276 0.4005-0.42276 1.0458 0 0.8233 0.57851 1.2905 0.57852 0.4673 1.3795 0.4673 0.93452 0 1.4908-0.2893 0.57852-0.3115 0.89002-0.8232 0.31151-0.5341 0.42276-1.2238 0.11126-0.6898 0.11126-1.4685zm-8.878 1.068q0 0.8455-0.35601 1.602t-1.0235 1.3128q-0.66751 0.5563-1.6465 0.89-0.95677 0.3115-2.1805 0.3115-1.6688 0-2.8036-0.6007-1.1348-0.6008-1.8245-1.6021-0.68977-1.0235-1.0013-2.3585-0.28925-1.3351-0.28925-2.7813 0-1.4463 0.28925-2.8036 0.31151-1.3573 1.0013-2.4031 0.68976-1.068 1.8245-1.691 1.1348-0.6453 2.8258-0.6453 1.3573 0 2.3141 0.3338 0.97902 0.3115 1.602 0.89 0.62302 0.5563 0.91228 1.3128 0.28925 0.7343 0.28925 1.5575h-2.0025q0-1.2683-0.71202-1.8913-0.71201-0.6452-2.4031-0.6452-1.9358 0-2.9148 1.4685-0.97902 1.4463-0.97902 4.5169 0 1.602 0.24476 2.7145 0.26701 1.0903 0.75652 1.7801 0.51176 0.6675 1.2015 0.9567 0.71202 0.2893 1.6243 0.2893 0.68977 0 1.2905-0.1335 0.60077-0.1335 1.0235-0.4228 0.44501-0.3115 0.68976-0.7787 0.24476-0.4896 0.24476-1.1793h2.0026zm-13.35 0.6452q-0.11125 0.6008-0.42276 1.2238-0.28925 0.6008-0.82326 1.0903-0.53402 0.4895-1.335 0.801-0.80101 0.3115-1.8913 0.3115-1.246 0-2.1138-0.4895-0.84553-0.4895-1.3795-1.246-0.53402-0.7788-0.77877-1.6911-0.22251-0.9345-0.22251-1.78 0-0.9345 0.22251-1.8468 0.24475-0.9345 0.77877-1.6688 0.534-0.7565 1.424-1.2238 0.89002-0.4672 2.2028-0.4672 1.4463 0 2.314 0.4895 0.86777 0.4895 1.335 1.2015 0.46726 0.6898 0.60076 1.4908 0.15575 0.7788 0.15575 1.3573 0 0.2225-0.0223 0.4673 0 0.2447-0.0445 0.4672h-7.0757q0 0.7788 0.1335 1.4463 0.15575 0.6453 0.46726 1.157 0.31151 0.4895 0.82327 0.7788 0.51176 0.267 1.2238 0.267 0.68977 0 1.1348-0.2003 0.46726-0.2225 0.75652-0.534 0.3115-0.3337 0.445-0.6897 0.15576-0.3783 0.20026-0.7121h1.8913zm-1.8913-2.8035q0.0668-0.534-0.0222-1.068-0.089-0.5341-0.37826-0.9346-0.28926-0.4227-0.82327-0.6675-0.51176-0.267-1.3128-0.267-0.73427 0-1.2238 0.3115-0.46726 0.2893-0.77877 0.7343-0.28926 0.445-0.44501 0.9568-0.13351 0.5117-0.20026 0.9345h5.1844zm-11.237 5.9631v-1.1348q-0.42276 0.4896-1.1793 0.9568-0.75652 0.445-1.7578 0.445-0.86777 0-1.691-0.3782-0.82326-0.3783-1.4908-1.0458-0.64527-0.6675-1.0458-1.5798-0.37826-0.9345-0.37826-2.0248 0-0.89 0.20026-1.8468 0.2225-0.9568 0.68977-1.7355 0.48951-0.801 1.2683-1.2906 0.77876-0.5117 1.9358-0.5117 1.068 0 1.958 0.3782 0.91227 0.3783 1.4908 1.1571v-5.6962h1.7578v14.307h-1.7578zm-0.0668-4.8728q0-0.8011-0.2225-1.5353-0.2225-0.7565-0.64526-1.3128-0.40052-0.5785-0.97903-0.9123-0.55626-0.3337-1.2238-0.3337-0.71202 0-1.2238 0.3782-0.48951 0.356-0.80102 0.9345-0.31152 0.5563-0.44502 1.2683t-0.1335 1.3796q0 0.7787 0.20025 1.4907 0.20026 0.6898 0.57852 1.2238 0.37826 0.5118 0.91227 0.8233t1.1793 0.3115q0.73426 0 1.2683-0.3338 0.53401-0.356 0.86777-0.89 0.33376-0.5562 0.48951-1.2015 0.178-0.6675 0.178-1.2905zm-9.4342-0.067q0 1.335-0.40051 2.314-0.37826 0.9791-1.0458 1.6243-0.64526 0.6453-1.5353 0.9568-0.89002 0.3115-1.8913 0.3115-1.0235 0-1.9135-0.3115-0.89002-0.3115-1.5575-0.9568-0.64526-0.6452-1.0235-1.6243-0.37826-0.979-0.37826-2.314t0.37826-2.3141q0.37826-0.979 1.0235-1.6242 0.66752-0.6453 1.5575-0.9568 0.89002-0.3115 1.9135-0.3115 1.0013 0 1.8913 0.3115 0.89002 0.3115 1.5353 0.9568 0.66752 0.6452 1.0458 1.6242 0.40051 0.9791 0.40051 2.3141zm-1.869 0q0-0.6898-0.17801-1.4018-0.178-0.712-0.55626-1.2683-0.35601-0.5785-0.93452-0.9345-0.55627-0.356-1.335-0.356-0.80101 0-1.3795 0.356-0.57852 0.356-0.95678 0.9345-0.35601 0.5563-0.53401 1.2683-0.17801 0.712-0.17801 1.4018 0 0.712 0.17801 1.4018 0.178 0.6897 0.53401 1.2683 0.37826 0.5562 0.95678 0.9122 0.57851 0.3338 1.3795 0.3338 0.77877 0 1.335-0.3338 0.57851-0.356 0.93452-0.9122 0.37826-0.5786 0.55626-1.2683 0.17801-0.6898 0.17801-1.4018zm-10.079 1.1348q0 0.8455-0.35601 1.602t-1.0235 1.3128q-0.66752 0.5563-1.6465 0.89-0.95677 0.3115-2.1806 0.3115-1.6688 0-2.8036-0.6007-1.1348-0.6008-1.8245-1.6021-0.68977-1.0235-1.0013-2.3585-0.28926-1.3351-0.28926-2.7814 0-1.4462 0.28926-2.8035 0.3115-1.3573 1.0013-2.4031 0.68976-1.068 1.8245-1.691 1.1348-0.6453 2.8258-0.6453 1.3573 0 2.3141 0.3338 0.97902 0.3115 1.602 0.89 0.62302 0.5563 0.91227 1.3128 0.28926 0.7342 0.28926 1.5575h-2.0026q0-1.2683-0.71201-1.8913-0.71202-0.6452-2.4031-0.6452-1.9358 0-2.9148 1.4685-0.97903 1.4463-0.97903 4.5168 0 1.6021 0.24476 2.7146 0.26701 1.0903 0.75652 1.7801 0.51176 0.6675 1.2015 0.9567 0.71201 0.2893 1.6243 0.2893 0.68977 0 1.2905-0.1335 0.60077-0.1335 1.0235-0.4228 0.44501-0.3115 0.68976-0.7788 0.24476-0.4895 0.24476-1.1792h2.0026zm-13.35 0.6452q-0.11125 0.6008-0.42276 1.2238-0.28925 0.6008-0.82326 1.0903-0.53402 0.4895-1.335 0.801-0.80101 0.3115-1.8913 0.3115-1.246 0-2.1138-0.4895-0.84552-0.4895-1.3795-1.246-0.53401-0.7788-0.77877-1.6911-0.22251-0.9345-0.22251-1.78 0-0.9345 0.22251-1.8468 0.24476-0.9345 0.77877-1.6688 0.53401-0.7565 1.424-1.2238 0.89003-0.4672 2.2028-0.4672 1.4463 0 2.3141 0.4895 0.86776 0.4895 1.335 1.2015 0.46726 0.6898 0.60076 1.4908 0.15575 0.7788 0.15575 1.3573 0 0.2225-0.0223 0.4672 0 0.2448-0.0445 0.4673h-7.0757q0 0.7788 0.13351 1.4463 0.15574 0.6453 0.46725 1.157 0.31151 0.4895 0.82328 0.7788 0.51175 0.267 1.2238 0.267 0.68977 0 1.1348-0.2003 0.46726-0.2225 0.75652-0.534 0.3115-0.3337 0.44501-0.6897 0.15575-0.3783 0.20026-0.7121h1.8913zm-1.8913-2.8035q0.0668-0.534-0.0222-1.0681-0.089-0.534-0.37826-0.9345-0.28926-0.4227-0.82327-0.6675-0.51176-0.267-1.3128-0.267-0.73426 0-1.2238 0.3115-0.46727 0.2893-0.77878 0.7343-0.28925 0.445-0.445 0.9567-0.13351 0.5118-0.20026 0.9346h5.1844zm-9.145 2.8035q-0.11125 0.6008-0.42276 1.2238-0.28925 0.6008-0.82326 1.0903-0.53402 0.4895-1.335 0.801-0.80101 0.3115-1.8913 0.3115-1.246 0-2.1138-0.4895-0.84552-0.4895-1.3795-1.246-0.53401-0.7788-0.77877-1.6911-0.22251-0.9345-0.22251-1.78 0-0.9345 0.22251-1.8468 0.24476-0.9345 0.77877-1.6688 0.53401-0.7565 1.424-1.2238 0.89003-0.4672 2.2028-0.4672 1.4463 0 2.3141 0.4895 0.86777 0.4895 1.335 1.2015 0.46726 0.6898 0.60076 1.4908 0.15576 0.7788 0.15576 1.3573 0 0.2225-0.0223 0.4672 0 0.2448-0.0445 0.4673h-7.0757q0 0.7788 0.13351 1.4463 0.15574 0.6453 0.46725 1.157 0.31151 0.4895 0.82328 0.7788 0.51175 0.267 1.2238 0.267 0.68977 0 1.1348-0.2003 0.46726-0.2225 0.75652-0.534 0.3115-0.3337 0.44501-0.6897 0.15575-0.3783 0.20026-0.7121h1.8913zm-1.8913-2.8035q0.0668-0.534-0.0222-1.0681-0.089-0.534-0.37826-0.9345-0.28926-0.4227-0.82327-0.6675-0.51176-0.267-1.3128-0.267-0.73426 0-1.2238 0.3115-0.46727 0.2893-0.77878 0.7343-0.28925 0.445-0.445 0.9567-0.13351 0.5118-0.20026 0.9346h5.1844zm-8.433-2.3363q-1.9358 0-2.8036 0.7565-0.84553 0.7343-0.84553 2.0025v5.5404h-1.8023v-9.9015h1.8023v1.3573q0.20026-0.3337 0.42276-0.5785 0.24476-0.2448 0.64527-0.4228t1.0013-0.267q0.62302-0.089 1.5798-0.089v1.6021zm-6.8087-4.5391q-0.24475-0.1113-0.51176-0.178-0.24476-0.067-0.55626-0.067-0.80102 0-1.157 0.4005-0.35601 0.3783-0.35601 1.335v1.4463h2.3808v1.2906h-2.3808v8.6109h-1.8023v-8.6109h-1.958v-1.2906h1.958v-1.513q0-0.9123 0.20026-1.513 0.20025-0.6008 0.5785-0.9346 0.37827-0.356 0.91228-0.4895 0.55626-0.1335 1.2683-0.1335 0.35601 0 0.68976 0.044 0.35601 0.022 0.73427 0.1335v1.4686zm-8.9225 22.851q-1.3128-1.6243-2.225-3.3154-0.89002-1.6688-1.4685-3.4933-0.55627-1.8023-0.82327-3.7604-0.24476-1.958-0.24476-4.1163 0-2.2695 0.26701-4.2943 0.267-2.0471 0.84551-3.9161 0.57852-1.8913 1.4685-3.6714 0.91227-1.78 2.1806-3.5378h1.1348q-1.2238 1.6688-2.136 3.3821-0.89002 1.7133-1.4685 3.5823-0.57852 1.869-0.86778 3.9606-0.28925 2.0693-0.28925 4.4946 0 4.1831 1.1125 7.8544 1.1125 3.6936 3.6491 6.831h-1.1348zm-15.842-14.952q0 1.0903-0.24476 2.047-0.24476 0.9568-0.80102 1.6688-0.55626 0.7121-1.424 1.1348-0.86777 0.4005-2.136 0.4005-1.0013 0-1.7355-0.4005-0.73427-0.4227-1.3795-0.9345v4.9619h-1.8023v-13.84h1.8023v1.2683q0.71201-0.6453 1.4018-1.068 0.71202-0.445 1.7133-0.445 1.2683 0 2.136 0.4227 0.86777 0.4005 1.424 1.1126 0.55626 0.6897 0.80102 1.6465 0.24476 0.9345 0.24476 2.0248zm-1.9136 0q0-0.7565-0.15575-1.4685-0.15575-0.7121-0.51176-1.2683-0.35601-0.5563-0.91227-0.89-0.53402-0.3338-1.3128-0.3338-0.80102 0-1.3573 0.3338-0.534 0.3337-0.89001 0.89-0.35601 0.5562-0.51177 1.2683-0.15575 0.712-0.15575 1.4685 0 0.7788 0.15575 1.4908 0.15576 0.6897 0.51177 1.246t0.89001 0.89q0.55627 0.3115 1.3573 0.3115 0.77876 0 1.3128-0.3115 0.55626-0.3337 0.91227-0.89t0.51176-1.246q0.15575-0.712 0.15575-1.4908zm-9.9682 0q0 1.0903-0.24475 2.047-0.24476 0.9568-0.80103 1.6688-0.55626 0.7121-1.424 1.1348-0.86777 0.4005-2.136 0.4005-1.0013 0-1.7355-0.4005-0.73426-0.4227-1.3795-0.9345v4.9619h-1.8023v-13.84h1.8023v1.2683q0.71202-0.6453 1.4018-1.068 0.71202-0.445 1.7133-0.445 1.2683 0 2.136 0.4227 0.86777 0.4005 1.424 1.1126 0.55627 0.6897 0.80103 1.6465 0.24475 0.9345 0.24475 2.0248zm-1.9136 0q0-0.7565-0.15574-1.4685-0.15576-0.7121-0.51177-1.2683-0.35601-0.5563-0.91227-0.89-0.53401-0.3338-1.3128-0.3338-0.80102 0-1.3573 0.3338-0.53401 0.3337-0.89002 0.89-0.35601 0.5562-0.51177 1.2683-0.15575 0.712-0.15575 1.4685 0 0.7788 0.15575 1.4908 0.15576 0.6897 0.51177 1.246t0.89002 0.89q0.55626 0.3115 1.3573 0.3115 0.77877 0 1.3128-0.3115 0.55626-0.3337 0.91227-0.89t0.51177-1.246q0.15574-0.712 0.15574-1.4908zm-11.348 4.9396-1.5798-3.8048h-7.0089l-1.5575 3.8048h-2.047l5.9854-14.307h2.2028l6.0744 14.307h-2.0693zm-5.1399-12.082-2.6701 6.5861h5.4069l-2.7368-6.5861zm-17.155 11.526q0 0.9568-0.31151 1.7801t-0.93453 1.424q-0.60076 0.6008-1.513 0.9345-0.89002 0.3561-2.0693 0.3561-1.2238 0-2.0025-0.3561-0.77877-0.356-1.2238-0.8677-0.42275-0.4895-0.60076-1.0235-0.15575-0.5341-0.15575-0.8901h1.8468q0 0.5118 0.20026 0.8678 0.2225 0.356 0.57851 0.5785 0.35601 0.2448 0.80101 0.356 0.44502 0.1113 0.89003 0.1113 0.68976 0 1.1793-0.2225 0.51177-0.2225 0.84553-0.7565 0.33376-0.5341 0.48951-1.4018 0.178-0.8678 0.178-2.1583-0.20025 0.356-0.55626 0.6452-0.33376 0.2893-0.75652 0.4895-0.42276 0.2003-0.89002 0.3116-0.46726 0.1112-0.93452 0.1112-2.0026 0-3.1818-1.2015-1.1793-1.2238-1.1793-3.8049 0-1.0457 0.28926-1.9358 0.31151-0.89 0.86777-1.5352 0.55626-0.6676 1.3128-1.0236 0.75651-0.3782 1.691-0.3782 1.3128 0 2.1138 0.3115 0.80102 0.2892 1.2238 1.0235v-1.0903h1.8023v9.3452zm-1.8246-4.6726q0-0.801-0.178-1.4685-0.15576-0.6675-0.51177-1.157-0.356-0.4895-0.93452-0.7565-0.55626-0.2893-1.3573-0.2893-0.77877 0-1.2905 0.2893-0.51176 0.2892-0.82327 0.7787t-0.44501 1.1571q-0.11125 0.6452-0.11125 1.4017 0 1.6911 0.68976 2.7146 0.68977 1.0235 2.0916 1.0235 0.77876 0 1.3128-0.3115 0.55627-0.3115 0.89003-0.8232 0.35601-0.5118 0.51176-1.1793t0.15575-1.3796zm-11.659 5.2289v-6.5639q0-0.4895-0.20026-0.9345-0.20025-0.445-0.53401-0.7565-0.33376-0.3338-0.77877-0.5118-0.44501-0.2002-0.93452-0.2002-0.53401 0-1.0013 0.2002-0.46727 0.178-0.82328 0.534-0.356 0.3338-0.57851 0.801-0.20025 0.4673-0.20025 1.0236v6.4081h-1.8023v-9.9015h1.8023v1.2683q0.44501-0.623 1.1125-1.068 0.68976-0.445 1.8913-0.445 1.068 0 1.78 0.2892 0.73427 0.267 1.1793 0.7565 0.46726 0.4673 0.64526 1.1348 0.20026 0.6675 0.20026 1.4686v6.4971h-1.7578zm-11.459-12.482v-1.8246h1.9358v1.8246h-1.9358zm0.06676 12.482v-9.9015h1.8023v9.9015h-1.8023zm-1.9581 0q-0.77877 0.267-1.4685 0.267-1.335 0-1.9358-0.6007-0.57852-0.6008-0.57852-2.2696v-6.0299h-1.8023v-1.2683h1.8023v-1.9803l1.8023-0.7342v2.7145h2.1806v1.2683h-2.1806v6.0299q0 0.9345 0.26701 1.2238 0.28926 0.2892 0.80101 0.2892 0.57852 0 1.1125-0.178v1.2683zm-7.2982-4.9396q0 1.335-0.40051 2.314-0.37826 0.9791-1.0458 1.6243-0.64527 0.6453-1.5353 0.9568-0.89002 0.3115-1.8913 0.3115-1.0235 0-1.9135-0.3115-0.89002-0.3115-1.5575-0.9568-0.64527-0.6452-1.0235-1.6243-0.37826-0.979-0.37826-2.314t0.37826-2.3141q0.37825-0.979 1.0235-1.6242 0.66752-0.6453 1.5575-0.9568 0.89002-0.3115 1.9135-0.3115 1.0013 0 1.8913 0.3115 0.89002 0.3115 1.5353 0.9568 0.66751 0.6452 1.0458 1.6242 0.40051 0.9791 0.40051 2.3141zm-1.869 0q0-0.6898-0.178-1.4018-0.17801-0.712-0.55626-1.2683-0.35601-0.5785-0.93452-0.9345-0.55626-0.356-1.335-0.356-0.80102 0-1.3795 0.356-0.57851 0.356-0.95678 0.9345-0.35601 0.5563-0.53401 1.2683-0.17801 0.712-0.17801 1.4018 0 0.712 0.17801 1.4018 0.178 0.6897 0.53401 1.2683 0.37826 0.5562 0.95678 0.9122 0.57852 0.3338 1.3795 0.3338 0.77877 0 1.335-0.3338 0.57851-0.356 0.93452-0.9122 0.37825-0.5786 0.55626-1.2683 0.178-0.6898 0.178-1.4018zm-14.263 4.9396h-2.2028l-5.0731-14.307h2.2473l3.9383 11.748 3.9383-11.748h2.2251l-5.0731 14.307zm-41.617-22.348h11.065v34.888h-11.065zm-12.847 10.491h11.136v24.724h-11.136zm-12.73-18.597h11.014v43.132h-11.014z" fill="url(#radialGradient4487)"/>
 </g>
</svg>
